<svg width="202" height="70" viewBox="0 0 202 70" fill="none" xmlns="http://www.w3.org/2000/svg">
<path d="M81.5628 0.817201C87.9017 4.23338 94.2407 7.64956 100.427 11.0136C101.802 11.0657 101.954 10.7007 102.413 10.492C107.759 7.59741 113.105 4.70278 118.451 1.83423C119.062 1.49522 119.749 1.15621 120.666 0.712891C121.811 1.62561 121.888 2.43402 122.27 3.24243C122.728 4.02476 123.11 4.80709 123.492 5.58942C123.95 6.39783 124.332 7.23232 124.79 8.04073C125.172 8.82306 125.554 9.60539 125.936 10.3877C126.317 11.1961 126.852 12.0306 127.234 12.839C128.456 12.9433 129.067 12.6565 129.831 12.5C138.155 10.5181 146.404 8.51013 154.728 6.52822C155.568 6.3196 156.256 6.00667 157.783 6.05882C155.187 10.0748 152.513 14.0386 149.917 18.0024C151.215 18.2632 152.284 18.0546 153.277 17.9763C160.074 17.4809 166.872 16.9332 173.669 16.4117C177.106 16.1509 180.542 15.864 184.056 15.6033C184.514 15.5772 184.972 15.5772 185.889 15.5511C185.278 15.9162 184.896 16.2031 184.361 16.4638C178.633 19.2281 172.981 21.9923 167.253 24.7565C166.566 25.0956 165.65 25.3824 165.421 25.904C168.323 26.243 171.378 26.2951 174.356 26.5037C177.335 26.7124 180.39 26.8688 183.368 27.0514C186.27 27.2078 189.173 27.3904 191.998 27.5729C194.901 27.7555 197.955 27.8337 201.316 28.1988C198.566 28.929 195.893 29.4245 193.373 29.9982C190.776 30.5719 188.18 31.1195 185.659 31.6671C183.215 32.1887 180.695 32.7363 178.251 33.284C175.731 33.8577 173.058 34.3271 170.461 35.0572C180.695 37.326 190.853 39.4644 200.781 41.6288C200.858 41.9678 200.17 41.9157 199.865 41.9678C199.407 42.02 198.948 42.0461 198.414 42.0721C188.103 42.6719 177.717 43.2717 167.406 43.8976C166.872 43.9237 166.261 44.0019 165.726 44.028C165.497 44.4713 166.337 44.706 166.872 44.9668C172.523 47.731 178.251 50.4952 183.979 53.2595C184.667 53.5985 185.659 53.8853 185.736 54.4069C179.779 54.0679 173.974 53.5203 168.17 53.103C162.366 52.6858 156.561 52.2164 150.91 51.7731C149.993 52.0078 150.222 52.2164 150.375 52.3989C152.59 55.7629 154.881 59.153 157.096 62.5171C157.401 62.9604 157.63 63.4037 158.012 63.9774C154.805 63.508 152.59 62.8039 150.07 62.2302C147.549 61.6565 145.105 61.0306 142.585 60.4309C140.217 59.8571 137.773 59.2574 135.406 58.7097C132.886 58.136 130.518 57.4841 127.616 56.8843C126.241 58.9966 125.477 61.0046 124.408 62.9865C123.339 64.9945 122.346 67.0024 121.353 68.9843C119.978 69.0365 119.826 68.6975 119.367 68.4628C114.021 65.5682 108.675 62.6735 103.329 59.805C102.718 59.466 102.031 59.153 101.191 58.7358C99.5868 59.2834 98.7467 59.8832 97.6775 60.4309C96.5319 61.0306 95.4627 61.6304 94.3171 62.2302C93.2479 62.8039 92.255 63.3516 91.1858 63.9253C90.1166 64.499 89.1237 65.0466 88.0545 65.6203C86.9089 66.2201 85.8397 66.8199 84.6941 67.4197C83.6249 67.9673 82.7847 68.5671 81.2573 69.1669C79.8826 68.1238 79.8826 67.0807 79.2716 66.0636C78.6606 65.0466 78.2024 64.0035 77.6677 62.9865C77.1331 61.9955 76.6749 61.0046 76.1403 60.0397C75.6057 59.0227 75.4529 57.9796 74.2309 56.9104C69.1139 58.0839 64.3024 59.2834 59.4146 60.4569C54.5267 61.6044 49.7152 62.8039 44.7509 63.9774C44.1399 63.4559 44.5982 63.1169 44.8273 62.7518C47.0421 59.4138 49.2569 56.0759 51.3954 52.7379C51.5481 52.4772 51.6245 52.1903 51.7772 51.7991C47.5003 51.9295 43.6817 52.3728 39.7867 52.6336C35.968 52.8944 32.1493 53.2334 28.3307 53.5203C24.4356 53.8071 20.5406 54.12 16.4165 54.433C16.2637 53.9636 17.0275 53.755 17.5621 53.4942C23.2137 50.7299 28.9417 47.9657 34.6697 45.2015C35.357 44.8625 36.2735 44.5756 36.5026 44.0541C32.5312 43.6629 28.5598 43.5325 24.6648 43.2978C20.8461 43.0631 16.9511 42.8284 13.1324 42.5937C9.16102 42.359 5.18961 42.1243 1.21821 41.8896C1.29458 41.4463 2.21106 41.3941 2.82204 41.2377C11.1467 39.4383 19.5478 37.6389 27.8724 35.8135C29.018 35.5788 30.0873 35.318 31.462 35.0051C30.5455 34.7443 29.8581 34.5357 29.018 34.3792C20.6934 32.5799 12.2923 30.7805 3.89127 28.9551C2.89842 28.7464 1.90556 28.4857 0.683594 28.2249C3.12754 27.7816 5.64785 27.8337 7.93904 27.6512C10.1539 27.4686 12.5214 27.3904 14.8126 27.26C17.2566 27.1296 19.6241 26.9731 21.9917 26.8167C24.2829 26.6863 26.5741 26.5298 28.8653 26.3994C31.2329 26.2691 33.6768 26.1126 35.968 25.9822C36.579 25.591 35.8153 25.3824 35.357 25.1477C31.6147 23.218 27.7197 21.3404 23.901 19.4628C21.7626 18.4457 19.7005 17.4287 17.5621 16.3856C17.1038 16.1509 16.6456 15.8901 16.1873 15.6815C16.722 15.3946 17.3329 15.525 17.7912 15.5511C27.6433 16.3074 37.5718 17.0636 47.424 17.846C48.7223 17.9503 50.0207 18.0285 51.6245 18.1328C51.5481 17.7677 51.6245 17.4809 51.3954 17.2201C49.1805 13.8821 46.9657 10.5442 44.8273 7.20624C44.5982 6.84115 44.4454 6.47607 44.2163 6.11098C45.3619 5.90236 45.9729 6.18921 46.5839 6.34568C54.7558 8.30151 62.9277 10.2834 71.176 12.2653C72.1689 12.5 73.009 12.813 74.5364 12.8651C75.8348 10.8571 76.5985 8.84914 77.6677 6.84115C78.737 4.83317 79.6534 2.85126 80.7227 0.843279C81.0282 0.843279 81.3336 0.843279 81.5628 0.817201Z" fill="#FFDE62"/>
</svg>
