<svg width="158" height="102" viewBox="0 0 158 102" fill="none" xmlns="http://www.w3.org/2000/svg">
<path fill-rule="evenodd" clip-rule="evenodd" d="M137.083 51.1528C131.441 49.641 125.657 52.9803 124.146 58.6224L121.54 68.3458C108.203 61.9415 93.5576 58.0174 77.4845 56.5411C64.1472 50.1369 49.502 46.2127 33.4289 44.7365L36.0343 35.013C37.546 29.371 34.2067 23.5871 28.5647 22.0753C22.0824 20.3384 12.6955 17.4372 10.1223 27.0406C9.28598 30.1617 10.2268 33.373 12.4174 35.7613C15.4075 39.007 15.8619 40.6727 14.7361 44.8742L13.353 50.036C12.0342 54.9578 14.9341 59.9806 19.8559 61.2994L20.4561 61.4602C19.5962 64.1891 18.3527 66.4291 16.5412 68.3882L23.3836 70.2217C25.7075 68.2711 27.6713 66.2241 29.0992 63.7762L115.89 87.0317C115.903 89.8656 116.46 92.5881 117.617 95.4715L124.46 97.3049C123.87 94.7024 123.913 92.1407 124.533 89.3476L125.133 89.5084C130.055 90.8272 135.078 87.9272 136.397 83.0055L137.78 77.8437C138.906 73.6422 140.132 72.4268 144.344 71.111C147.436 70.138 149.856 67.8273 150.692 64.7062C153.265 55.1028 143.566 52.8897 137.083 51.1528ZM134.521 38.6292L134.286 47.1868C128.106 47.2034 122.369 51.3273 120.697 57.5695L119.185 63.2115C106.287 57.5683 92.5054 54.2616 78.4495 52.9399C65.648 46.9365 52.1154 43.1818 38.0037 41.5878L39.5155 35.9458C41.1881 29.7036 38.2818 23.2637 32.9379 20.1593L37.1659 12.5432C41.3382 4.65482 134.819 29.8317 134.521 38.6292Z" fill="white"/>
</svg>
