<svg width="102" height="121" viewBox="0 0 102 121" fill="none" xmlns="http://www.w3.org/2000/svg">
<path fill-rule="evenodd" clip-rule="evenodd" d="M65.1745 87.7917L69.4125 85.3448C74.1591 82.6044 80.0024 83.5253 83.6849 87.1629L88.9557 82.1986C94.3471 77.0516 58.1341 14.3288 50.9809 16.4244L44.0463 18.5069C45.3554 23.5148 43.2312 29.0357 38.4846 31.7761L34.2466 34.223C45.0143 47.7837 58.8633 71.771 65.1745 87.7917ZM29.7271 33.4419C40.8697 46.6732 57.7038 75.8308 63.6401 92.181L70.9296 87.9724C75.7609 85.183 80.8938 87.4182 83.5364 91.9952C86.1301 96.4876 84.6386 102.321 80.0615 104.964C77.2644 106.579 74.1081 106.593 71.359 105.355C69.1552 106.627 61.7811 110.884 58.4754 112.793C54.7459 114.946 50.0176 113.608 47.9133 109.963L6.51301 38.2555C4.3598 34.526 5.6984 29.7977 9.3431 27.6934C12.6488 25.7849 20.0229 21.5274 22.2267 20.255C22.529 17.2552 23.3565 14.9692 27.0012 12.8649C30.6459 10.7607 37.3272 11.7628 39.9698 16.3399C42.6124 20.9169 42.0663 26.4308 37.1502 29.2692L29.7761 33.5266L29.7271 33.4419ZM52.9824 35.1593C53.6186 36.2612 53.2246 37.7319 52.1227 38.368C51.0208 39.0042 49.5501 38.6101 48.9139 37.5082C48.2778 36.4064 48.6718 34.9357 49.7737 34.2995C50.9604 33.6144 52.3463 34.0574 52.9824 35.1593ZM63.4059 53.2133C64.0421 54.3152 63.648 55.7859 62.5462 56.422C61.4443 57.0582 59.9736 56.6641 59.3374 55.5622C58.7012 54.4604 59.0953 52.9897 60.1972 52.3535C61.3838 51.6684 62.7208 52.0266 63.4059 53.2133ZM73.7805 71.1825C74.4167 72.2844 74.0226 73.7551 72.9207 74.3913C71.8188 75.0274 70.3481 74.6334 69.712 73.5315C69.0758 72.4296 69.4699 70.9589 70.5717 70.3228C71.7584 69.6376 73.1443 70.0806 73.7805 71.1825Z" fill="white"/>
</svg>
