<svg width="168" height="134" viewBox="0 0 168 134" fill="none" xmlns="http://www.w3.org/2000/svg">
<path fill-rule="evenodd" clip-rule="evenodd" d="M40.5008 123.954L42.3721 127.196L31.3225 133.575C22.6463 118.548 15.6714 106.467 6.99525 91.4391C6.05958 89.8185 6.62 87.727 8.24061 86.7913L13.5444 83.7292C15.1651 82.7935 17.2566 83.3539 18.1922 84.9745L25.3373 97.3501L139.222 31.5986L132.077 19.223C131.142 17.6024 131.702 15.5109 133.323 14.5752L138.626 11.5131C140.247 10.5774 142.339 11.1378 143.274 12.7584C151.95 27.786 158.925 39.8669 167.601 54.8944L156.552 61.2739L154.68 58.0327L40.5008 123.954ZM79.706 62.228L68.9033 43.5173C68.0527 42.044 66.1936 41.5459 64.7203 42.3965L11.5347 73.1032C10.0614 73.9538 9.71063 75.7278 10.5612 77.2011L12.6027 80.737C15.487 79.2682 19.2903 80.4118 20.9915 83.3584L26.5204 92.9348L79.706 62.228ZM132.443 11.3507L130.487 7.96214C129.636 6.48886 127.777 5.99071 126.304 6.84131L73.1181 37.548C71.6448 38.3986 71.1466 40.2577 71.9972 41.731L82.7999 60.4418L134.512 30.5856L128.983 21.0093C127.112 17.768 128.318 13.7324 131.412 11.9461L132.443 11.3507Z" fill="white"/>
</svg>
