<svg width="16" height="16" viewBox="0 0 16 16" fill="none" xmlns="http://www.w3.org/2000/svg">
<path d="M11.2639 0.0405273H4.34951C1.99297 0.0405273 0.0839844 1.94951 0.0839844 4.30606V11.2295C0.0839844 13.577 1.99297 15.4951 4.34951 15.4951H11.273C13.6204 15.4951 15.5385 13.5861 15.5385 11.2295V4.30606C15.5294 1.94951 13.6113 0.0405273 11.2639 0.0405273ZM14.1593 11.2204C14.1593 12.8188 12.8623 14.1159 11.2639 14.1159H4.34951C2.75108 14.1159 1.45407 12.8188 1.45407 11.2204V4.30606C1.45407 2.70762 2.75108 1.41061 4.34951 1.41061H11.273C12.8714 1.41061 14.1684 2.70762 14.1684 4.30606L14.1593 11.2204Z" fill="#1E1E1E"/>
<path d="M7.80212 3.78542C5.60999 3.78542 3.82888 5.56653 3.82888 7.75867C3.82888 9.9508 5.60999 11.741 7.81126 11.741C10.0125 11.741 11.7936 9.95993 11.7936 7.75867C11.7845 5.56653 10.0034 3.78542 7.80212 3.78542ZM7.80212 10.371C6.3681 10.371 5.18983 9.20182 5.18983 7.75867C5.19896 6.32465 6.3681 5.15551 7.80212 5.15551C9.23614 5.15551 10.4144 6.32464 10.4144 7.7678C10.4144 9.20182 9.24528 10.371 7.80212 10.371Z" fill="#1E1E1E"/>
<path d="M11.9489 2.62542C11.684 2.62542 11.4283 2.73503 11.2365 2.9177C11.0447 3.10038 10.9442 3.36526 10.9442 3.63015C10.9442 3.89503 11.0538 4.15078 11.2365 4.34259C11.4191 4.52527 11.684 4.63487 11.9489 4.63487C12.2138 4.63487 12.4695 4.52527 12.6614 4.34259C12.8532 4.15991 12.9536 3.89503 12.9536 3.63015C12.9536 3.36526 12.844 3.10951 12.6614 2.9177C12.4787 2.72589 12.2138 2.62542 11.9489 2.62542Z" fill="#1E1E1E"/>
</svg>
