<svg width="97" height="28" viewBox="0 0 97 28" fill="none" xmlns="http://www.w3.org/2000/svg">
<path d="M71.057 0.574334L70.9959 0.523638C70.9959 0.523638 68.6846 1.65921 65.5791 1.68962C62.4024 1.73018 60.8344 0.412109 60.8344 0.412109L58.35 3.77826C58.35 3.77826 60.3355 4.97466 63.4817 4.93411C69.0512 4.88341 71.057 0.574334 71.057 0.574334ZM30.7978 26.4085C28.0181 25.7394 27.6516 25.06 25.3199 21.5215L14.0384 4.54883C12.4195 2.11546 14.7613 1.44629 15.3417 1.44629V0.685863H1.3823V1.35504C2.97068 1.35504 5.52633 2.45005 8.19399 6.4651L19.4959 23.4784C21.1861 25.861 18.9155 26.6823 17.4188 26.6823V27.2906H31.3476V26.4795C31.0218 26.4694 30.8283 26.4187 30.7978 26.4085Z" fill="#1E1E1E"/>
<path d="M17.9686 9.79073L18.3962 10.4903L20.4632 7.74265C20.565 7.59056 21.9803 5.92776 22.7846 4.95442C22.8457 4.87331 22.9272 4.81247 22.9985 4.7415C26.0938 1.61868 28.6698 1.4666 29.9629 1.30437V0.675756H18.8443V1.24354C20.6057 1.16243 23.1308 2.0648 20.6872 5.90749L17.9686 9.79073ZM49.1965 23.7014V14.3938C49.1965 10.3991 46.1215 7.9657 41.1019 7.9657C37.3142 7.9657 34.2495 9.54739 34.1375 9.59808L34.5447 14.2519H34.6262C34.6262 14.2519 38.9433 7.39792 41.6721 8.55377L41.5499 8.49293C41.6313 8.52335 41.7128 8.5639 41.7942 8.6146C41.7535 8.59432 41.7128 8.57404 41.6619 8.55377L41.7942 8.6146C42.843 9.18238 43.6779 10.5714 43.6779 13.0251V14.7386C42.5579 14.992 40.4706 15.5193 37.4364 16.4622C33.1396 17.8005 31.8058 19.8081 31.8058 22.4239C31.8058 26.0943 34.5244 27.8584 37.3855 27.8584C40.9288 27.8584 42.8735 25.3034 43.6779 23.9042V27.2907H51.2227V27.1791C51.243 27.1994 49.1965 26.0841 49.1965 23.7014ZM43.6983 23.0728C43.3826 23.5696 42.3237 24.9688 40.5317 24.9688C38.76 24.9688 37.3753 24.0158 37.3753 21.5925C37.3753 18.1757 41.7128 16.0566 43.6983 15.2658V23.0728ZM66.8621 8.57404L66.8417 8.67543L60.4984 23.012H60.254V12.1734C60.2642 9.80086 62.3006 8.68557 62.3006 8.68557V8.57404H52.7092V8.68557C52.7092 8.68557 54.7456 9.80086 54.7558 12.1734V23.6913C54.7456 26.0638 52.7092 27.1791 52.7092 27.1791V27.2907H59.4191L59.4904 27.0777L65.9253 12.7006H66.2002V23.6812C66.2002 26.0638 64.1537 27.1791 64.1537 27.1791V27.2907H73.745V27.1791C73.745 27.1791 71.7086 26.0638 71.6985 23.6913V12.1835C71.6985 9.80086 73.745 8.68557 73.745 8.68557V8.57404H66.8621ZM97.0005 8.68557V8.57404H75.9545V8.68557C75.9545 8.68557 77.9909 9.80086 78.0011 12.1734V23.6812C78.0011 26.0638 75.9545 27.169 75.9545 27.169V27.2805H85.5458V27.1791C85.5458 27.1791 83.5095 26.0638 83.4993 23.6913V9.31419H89.4557V23.6812C89.4455 26.0638 87.3989 27.1791 87.3989 27.1791V27.2907H96.9903V27.1791C96.9903 27.1791 94.9539 26.0638 94.9437 23.6812V12.1835C94.9539 9.80086 97.0005 8.68557 97.0005 8.68557ZM10.6784 21.0754L13.4784 16.0566L13.122 15.5598L9.21218 21.0146C6.25943 25.4656 2.57358 26.6519 0.975027 26.7533C0.873208 26.7634 0.781571 26.7634 0.700116 26.7634H0.34375V27.2907H13.3969L13.3868 26.6722C13.1628 26.6418 9.874 27.1386 10.0267 23.4784C10.0675 22.6673 10.3424 21.8257 10.6784 21.0754Z" fill="#1E1E1E"/>
</svg>
