<svg width="161" height="51" viewBox="0 0 161 51" fill="none" xmlns="http://www.w3.org/2000/svg">
<path d="M104.003 48.8474H106.089C106.334 48.8474 106.518 48.786 106.641 48.7247C106.763 48.6633 106.825 48.4793 106.825 48.2339C106.825 47.9885 106.763 47.8045 106.641 47.6818C106.518 47.5591 106.334 47.5591 106.089 47.5591H104.003V48.8474ZM104.003 45.7799V47.191H105.966C106.395 47.191 106.702 47.2523 106.886 47.4364C107.07 47.5591 107.132 47.8658 107.132 48.2339C107.132 48.602 107.07 48.8474 106.886 49.0314C106.702 49.1541 106.457 49.2768 106.027 49.2768H103.573V45.8413H104.003V45.7799ZM102.039 49.1542V45.7186H98.5426V48.3566C98.5426 48.5407 98.4812 48.6633 98.4199 48.7247C98.3585 48.786 98.2972 48.7861 98.1745 48.7861H97.9904V49.1542H98.1131C98.3585 49.1542 98.5426 49.0928 98.6653 48.9701C98.788 48.8474 98.8493 48.602 98.8493 48.3566V46.148H101.61V49.1542H102.039ZM96.518 49.1542V48.7861H93.8186V47.5591H96.3953V47.191H93.8186V46.0253H96.4567V45.6572H93.4505V49.0928H96.518V49.1542ZM88.8493 48.8474H90.9352C91.1806 48.8474 91.3646 48.786 91.4873 48.7247C91.61 48.6633 91.6714 48.4793 91.6714 48.2339C91.6714 47.9885 91.61 47.8045 91.4873 47.6818C91.3646 47.5591 91.1806 47.5591 90.9352 47.5591H88.9107V48.8474H88.8493ZM91.6714 45.7799V46.148H88.7879V47.191H90.7512C91.1806 47.191 91.4873 47.2523 91.6714 47.4364C91.8554 47.5591 91.9168 47.8658 91.9168 48.2339C91.9168 48.602 91.8554 48.8474 91.6714 49.0314C91.4873 49.1541 91.2419 49.2768 90.8125 49.2768H88.3585V45.8413H91.6714V45.7799ZM86.8248 49.1542V48.7861H84.1254V47.5591H86.7021V47.191H84.1254V46.0253H86.7634V45.6572H83.7573V49.0928H86.8248V49.1542ZM82.2235 49.1542H81.8554V46.0253H81.6714L79.8309 49.1542H79.6469L77.8064 46.0253H77.6223V49.1542H77.2542V45.7186H77.9904L79.7082 48.6633L81.426 45.7186H82.1622V49.1542H82.2235ZM70.5671 47.4364C70.2603 47.4364 70.0763 47.375 70.015 47.3137C69.8923 47.2523 69.8309 47.0683 69.8309 46.8229C69.8309 46.5775 69.8923 46.3934 70.015 46.2707C70.1376 46.148 70.3217 46.0867 70.5671 46.0867H72.653V47.375H70.5671V47.4364ZM73.0211 45.7799H70.6898C70.2604 45.7799 69.9536 45.8413 69.7696 46.0253C69.5855 46.2094 69.4628 46.4548 69.4628 46.8229C69.4628 47.1296 69.5242 47.375 69.7082 47.5591C69.8923 47.7431 70.1376 47.8045 70.4444 47.8045L69.2788 49.2155H69.7696L70.8738 47.8045H72.5916V49.2155H72.9597V45.7799H73.0211ZM65.5364 47.4364C65.2297 47.4364 65.0456 47.375 64.9843 47.3137C64.8616 47.2523 64.8002 47.0683 64.8002 46.8229C64.8002 46.5775 64.8616 46.3934 64.9843 46.2707C65.107 46.148 65.291 46.0867 65.5364 46.0867H67.6223V47.375H65.5364V47.4364ZM67.9291 45.7799H65.5978C65.1683 45.7799 64.8616 45.8413 64.6775 46.0253C64.4935 46.2094 64.3708 46.4548 64.3708 46.8229C64.3708 47.1296 64.4321 47.375 64.6162 47.5591C64.8002 47.7431 65.0456 47.8045 65.3524 47.8045L64.1867 49.2155H64.6775L65.7818 47.8045H67.4996V49.2155H67.8677V45.7799H67.9291ZM59.5855 49.1542V47.5591H62.5916V49.1542H62.9597V45.7186H62.5916V47.191H59.5855V45.7186H59.2174V49.1542H59.5855ZM52.2849 49.1542H57.4383V45.7186H57.0702V48.7861H55.0456V45.7186H54.6775V48.7861H52.653V45.7186H52.2849V49.1542ZM48.8493 46.0253L49.8309 47.9885H47.8064L48.8493 46.0253ZM47.6223 48.2953H50.0149L50.4444 49.1542H50.8738L49.0947 45.7186H48.5426L46.7634 49.1542H47.1315L47.6223 48.2953ZM45.4137 49.1542H45.0456V46.0253H44.8616L43.0211 49.1542H42.837L40.9965 46.0253H40.8125V49.1542H40.4444V45.7186H41.1806L42.8984 48.6633L44.6162 45.7186H45.3524V49.1542H45.4137ZM38.9107 46.9456C38.9107 46.4548 38.788 46.148 38.6039 45.964C38.4199 45.7799 38.1131 45.7186 37.6837 45.7186H36.2113C35.7205 45.7186 35.4137 45.8413 35.2297 46.0253C35.0456 46.2094 34.9229 46.5161 34.9229 46.9456V47.9885C34.9229 48.418 35.0456 48.7247 35.2297 48.9087C35.4137 49.0928 35.7205 49.1542 36.2113 49.1542H37.6837C38.1745 49.1542 38.4812 49.0928 38.6653 48.9087C38.8493 48.7247 38.9107 48.418 38.9107 47.9885V46.9456ZM38.5426 47.9885C38.5426 48.2953 38.4812 48.5407 38.3585 48.6633C38.2358 48.786 37.9904 48.8474 37.6223 48.8474H36.1499C35.7818 48.8474 35.5978 48.786 35.4137 48.6633C35.291 48.5407 35.2297 48.3566 35.2297 47.9885V46.8842C35.2297 46.5775 35.291 46.3321 35.4137 46.2094C35.5364 46.0867 35.7818 46.0253 36.0886 46.0253H37.561C37.9291 46.0253 38.1131 46.0867 38.2358 46.2094C38.3585 46.3321 38.4199 46.5775 38.4199 46.8842V47.9885H38.5426ZM29.7696 45.7799V47.9885C29.7696 48.1726 29.7082 48.3566 29.6469 48.4793C29.5855 48.602 29.4628 48.7247 29.3401 48.8474H29.1561V50.1357H29.4628V49.2155H33.0824V50.1357H33.4505V48.8474H33.1438V45.7799H29.7696ZM29.7696 48.8474C29.8923 48.7861 30.015 48.602 30.0763 48.4179C30.1377 48.2339 30.1377 48.0499 30.1377 47.8658V46.148H32.7757V48.8474H29.7696ZM21.9781 48.8474H24.064C24.3094 48.8474 24.4935 48.786 24.6162 48.7247C24.7389 48.602 24.7389 48.4793 24.7389 48.1726C24.7389 47.9272 24.6775 47.7431 24.5548 47.6204C24.4321 47.4977 24.2481 47.4977 24.0027 47.4977H21.9781V48.8474ZM21.9781 45.7799V47.191H23.9413C24.3708 47.191 24.6775 47.2523 24.8616 47.4364C25.0456 47.5591 25.107 47.8658 25.107 48.2339C25.107 48.602 25.0456 48.8474 24.8616 49.0314C24.6775 49.1541 24.4321 49.2768 24.0027 49.2768H21.5487V45.8413H21.9781V45.7799ZM16.6407 49.1542V47.5591H19.6469V49.1542H20.015V45.7186H19.6469V47.191H16.6407V45.7186H16.2726V49.1542H16.6407ZM14.6162 49.1542V48.7861H11.9168V47.5591H14.4935V47.191H11.9168V46.0253H14.5548V45.6572H11.5487V49.0928H14.6162V49.1542ZM9.64686 46.8842C9.58551 47.0683 9.52416 47.191 9.40146 47.2523C9.27876 47.375 9.03336 47.375 8.72661 47.375H7.56097C7.19287 47.375 6.94747 47.3137 6.82477 47.191C6.70207 47.0683 6.64072 46.8842 6.64072 46.7002V45.6572H6.39532V46.5161C6.39532 46.9456 6.51802 47.2523 6.70207 47.4364C6.88612 47.6204 7.19287 47.6818 7.68367 47.6818H8.78796C8.97201 47.6818 9.15606 47.6818 9.27876 47.6204C9.40146 47.5591 9.52416 47.4977 9.64686 47.375V49.0314H10.015V45.6572H9.64686V46.8842ZM4.80023 46.9456C4.80023 46.4548 4.67753 46.148 4.49348 45.964C4.30943 45.7799 4.00268 45.7186 3.57324 45.7186H2.10084C1.61005 45.7186 1.3033 45.8413 1.11925 46.0253C0.935199 46.2094 0.8125 46.5161 0.8125 46.9456V47.9885C0.8125 48.418 0.935199 48.7247 1.11925 48.9087C1.3033 49.0928 1.61005 49.1542 2.10084 49.1542H3.57324C4.06403 49.1542 4.37078 49.0928 4.55483 48.9087C4.73888 48.7247 4.80023 48.418 4.80023 47.9885V46.9456ZM4.43213 47.9885C4.43213 48.2953 4.37078 48.5407 4.24808 48.6633C4.12538 48.786 3.87998 48.8474 3.51189 48.8474H2.10084C1.73275 48.8474 1.5487 48.786 1.36465 48.6633C1.24195 48.5407 1.1806 48.3566 1.1806 47.9885V46.8842C1.1806 46.5775 1.24195 46.3321 1.36465 46.2094C1.48735 46.0867 1.73275 46.0253 2.03949 46.0253H3.51189C3.87998 46.0253 4.06403 46.0867 4.18673 46.2094C4.30943 46.3321 4.37078 46.5775 4.37078 46.8842V47.9885H4.43213Z" fill="#1E1E1E"/>
<path d="M104.003 37.0683C104.248 37.3137 104.371 37.7431 104.371 38.1726C104.371 38.6634 104.248 39.0314 104.003 39.2768C103.757 39.5222 103.389 39.7063 102.96 39.7063H97.8677V36.6388H102.96C103.389 36.7002 103.757 36.8229 104.003 37.0683ZM103.512 32.1603C103.757 32.4057 103.819 32.7124 103.819 33.0805C103.819 33.51 103.696 33.8167 103.512 34.0008C103.266 34.2462 102.96 34.3075 102.592 34.3075H97.8064V31.7308H102.592C102.96 31.7922 103.266 31.9149 103.512 32.1603ZM94.7389 41.9149C94.9229 42.0989 95.107 42.1603 95.3524 42.1603H103.021C104.371 42.1603 105.475 41.8535 106.395 41.1787C107.316 40.5038 107.745 39.5836 107.745 38.3566C107.745 37.0069 107.193 36.0253 106.027 35.4118C106.825 34.737 107.254 34.0008 107.254 33.0805C107.254 32.2216 107.009 31.5468 106.579 30.9946C106.089 30.4425 105.536 30.013 104.862 29.829C104.187 29.5836 103.451 29.5222 102.653 29.5222H95.4137C95.1683 29.5222 94.9843 29.5836 94.8002 29.7676C94.6162 29.9517 94.5548 30.1357 94.5548 30.3811V41.4854C94.4935 41.5468 94.6162 41.7308 94.7389 41.9149ZM85.5364 42.4057C87.8677 42.4057 89.6469 41.8535 90.8738 40.8106C92.1008 39.7676 92.7143 38.0499 92.7143 35.7799C92.7143 33.51 92.1008 31.7922 90.8738 30.7492C89.6469 29.7063 87.8677 29.1541 85.5364 29.1541C83.2051 29.1541 81.426 29.7063 80.199 30.7492C78.972 31.7922 78.3585 33.51 78.3585 35.7799C78.3585 38.0499 78.972 39.7676 80.199 40.8106C81.426 41.9149 83.2051 42.4057 85.5364 42.4057ZM89.3401 35.7799C89.3401 37.191 89.0334 38.2339 88.4199 38.9701C87.8064 39.7063 86.8248 40.013 85.5364 40.013C84.1867 40.013 83.2051 39.6449 82.653 38.9701C82.0395 38.2339 81.7327 37.191 81.7327 35.7799C81.7327 34.3689 82.0395 33.3259 82.653 32.5897C83.2665 31.8535 84.2481 31.5468 85.5364 31.5468C86.8861 31.5468 87.8677 31.9149 88.4199 32.5897C89.0334 33.3259 89.3401 34.3689 89.3401 35.7799ZM73.4505 41.9149C73.6346 42.0989 73.8186 42.1603 74.064 42.1603H75.7205C75.9659 42.1603 76.1499 42.0989 76.334 41.9149C76.518 41.7308 76.5794 41.5468 76.5794 41.3014V30.2584C76.5794 30.013 76.518 29.829 76.334 29.6449C76.1499 29.4609 75.9659 29.3995 75.7205 29.3995H74.064C73.8186 29.3995 73.6346 29.4609 73.4505 29.6449C73.2665 29.829 73.2051 30.013 73.2051 30.2584V34.2462H67.0702V30.2584C67.0702 30.013 67.0088 29.829 66.8248 29.6449C66.6407 29.4609 66.4567 29.3995 66.2113 29.3995H64.5548C64.3094 29.3995 64.1254 29.4609 63.9413 29.6449C63.7573 29.829 63.6959 30.013 63.6959 30.2584V41.3627C63.6959 41.6081 63.7573 41.7922 63.9413 41.9762C64.1254 42.1603 64.3094 42.2216 64.5548 42.2216H66.2113C66.4567 42.2216 66.6407 42.1603 66.8248 41.9762C67.0088 41.7922 67.0702 41.6081 67.0702 41.3627V36.7615H73.2051V41.3627C73.2051 41.5468 73.2665 41.7308 73.4505 41.9149ZM53.8186 32.4057C54.2481 32.0989 54.7389 31.9149 55.291 31.9149H57.8064V36.5775H52.1622L52.9597 33.694C53.0824 33.1419 53.3892 32.7124 53.8186 32.4057ZM47.561 41.9149C47.6837 42.0989 47.8677 42.1603 48.1131 42.1603H49.8923C50.1376 42.1603 50.3217 42.0989 50.5671 41.9149C50.7511 41.7308 50.9352 41.5468 50.9965 41.3014L51.61 39.0315H57.9291V41.3014C57.9291 41.5468 57.9904 41.7308 58.1745 41.9149C58.3585 42.0989 58.5426 42.1603 58.788 42.1603H60.3217C60.5671 42.1603 60.7511 42.0989 60.9352 41.9149C61.1192 41.7308 61.1806 41.5468 61.1806 41.3014V30.1971C61.1806 29.9517 61.1192 29.7676 60.9352 29.6449C60.8125 29.4609 60.6284 29.3995 60.383 29.3995H55.5978C52.2849 29.3995 50.3217 30.5652 49.7082 32.8351L47.4383 41.3014C47.3769 41.5468 47.4383 41.7308 47.561 41.9149ZM42.9597 37.0683C43.2051 37.3137 43.3278 37.7431 43.3278 38.1726C43.3278 38.6634 43.2051 39.0314 42.9597 39.2768C42.7143 39.5222 42.3462 39.7063 41.9168 39.7063H36.8248V36.6388H41.9168C42.4076 36.7002 42.7143 36.8229 42.9597 37.0683ZM42.5303 32.1603C42.7757 32.4057 42.8984 32.7124 42.8984 33.0805C42.8984 33.51 42.7757 33.8167 42.5303 34.0008C42.2849 34.2462 41.9781 34.3075 41.61 34.3075H36.8248V31.7308H41.61C41.9781 31.7922 42.2849 31.9149 42.5303 32.1603ZM33.7573 41.9149C33.9413 42.0989 34.1254 42.1603 34.3708 42.1603H42.0395C43.3892 42.1603 44.4935 41.8535 45.4137 41.1787C46.334 40.5038 46.7634 39.5836 46.7634 38.3566C46.7634 37.0069 46.2113 36.0253 45.0456 35.4118C45.8432 34.737 46.2726 34.0008 46.2726 33.0805C46.2726 32.2216 46.0272 31.5468 45.5978 30.9946C45.107 30.4425 44.5548 30.013 43.88 29.829C43.2051 29.5836 42.4689 29.5222 41.6714 29.5222H34.3094C34.064 29.5222 33.88 29.5836 33.6959 29.7676C33.5119 29.9517 33.4505 30.1357 33.4505 30.3811V41.4854C33.5119 41.5468 33.5732 41.7308 33.7573 41.9149ZM30.6898 41.9149C30.8738 41.7308 30.9352 41.5468 30.9352 41.3014V30.2584C30.9352 30.013 30.8738 29.829 30.6898 29.6449C30.5058 29.4609 30.3217 29.3995 30.0763 29.3995H27.4383C27.2542 29.3995 27.0088 29.4609 26.7634 29.6449C26.518 29.829 26.334 30.013 26.2113 30.2584L21.1192 39.1541V30.1971C21.1192 29.9517 21.0579 29.7676 20.8738 29.6449C20.6898 29.4609 20.5058 29.3995 20.2604 29.3995H18.6653C18.4199 29.3995 18.2358 29.4609 18.0518 29.6449C17.8677 29.829 17.8064 30.013 17.8064 30.2584V41.3627C17.8064 41.6081 17.8677 41.7922 18.0518 41.9762C18.2358 42.1603 18.4199 42.2216 18.6653 42.2216H21.61C21.8554 42.2216 22.1008 42.1603 22.3462 41.9762C22.5916 41.7922 22.7757 41.6081 22.8984 41.3627L27.561 33.0805V41.3627C27.561 41.6081 27.6223 41.7922 27.8064 41.9762C27.9904 42.1603 28.1745 42.2216 28.4199 42.2216H30.015C30.3217 42.1603 30.5058 42.0376 30.6898 41.9149ZM7.99041 32.4057C8.35851 32.0989 8.84931 31.9149 9.40146 31.9149H12.0395V39.6449H5.78183L7.25422 33.694C7.37692 33.1419 7.62232 32.7124 7.99041 32.4057ZM1.6714 39.6449C1.426 39.6449 1.24195 39.7063 1.0579 39.8903C0.87385 40.013 0.8125 40.1971 0.8125 40.4425V41.3014C0.8125 41.5468 0.87385 41.7308 1.0579 41.9149C1.24195 42.0989 1.426 42.1603 1.6714 42.1603H14.6162C14.8616 42.1603 15.0456 42.0989 15.2297 41.9149C15.4137 41.7308 15.4751 41.5468 15.4751 41.3014V30.1971C15.4751 29.9517 15.4137 29.7676 15.2297 29.6449C15.0456 29.4609 14.8616 29.3995 14.6162 29.3995H9.8309C6.57937 29.3995 4.61618 30.5652 4.06403 32.8965L2.40759 39.6449H1.6714Z" fill="#1E1E1E"/>
<path d="M85.6591 1.54679C85.3524 1.85353 85.2297 2.22163 85.2297 2.65108V4.18482C85.2297 4.61427 85.3524 4.98237 85.6591 5.28912C85.9659 5.59586 86.334 5.71856 86.7634 5.71856H94.064V23.0805C94.064 23.51 94.1867 23.8781 94.4935 24.1235C94.8002 24.4302 95.1683 24.5529 95.5978 24.5529H98.6653C99.0947 24.5529 99.4628 24.4302 99.7696 24.1235C100.076 23.8167 100.199 23.4486 100.199 23.0805V5.71856H107.5C107.929 5.71856 108.297 5.59586 108.604 5.28912C108.911 4.98237 109.033 4.61427 109.033 4.18482V2.65108C109.033 2.22163 108.911 1.85353 108.604 1.54679C108.297 1.24004 107.929 1.11734 107.5 1.11734H86.7021C86.2726 1.05599 85.9045 1.24004 85.6591 1.54679ZM63.7573 1.05599C63.3278 1.05599 62.9597 1.17869 62.653 1.48544C62.3462 1.79218 62.2235 2.16028 62.2235 2.58973V22.9578C62.2235 23.3873 62.3462 23.7554 62.653 24.0621C62.9597 24.3689 63.3278 24.4916 63.7573 24.4916H82.5916C83.0211 24.4916 83.3892 24.3689 83.6959 24.0621C84.0027 23.7554 84.1254 23.3873 84.1254 22.9578V21.3627C84.1254 20.9333 84.0027 20.5652 83.6959 20.2584C83.3892 19.9517 83.0211 19.829 82.653 19.829H68.4199V14.9824H80.6898C81.1192 14.9824 81.4873 14.8597 81.7941 14.5529C82.1008 14.2462 82.2235 13.8781 82.2235 13.4486V11.9149C82.2235 11.4854 82.1008 11.1173 81.7941 10.8106C81.4873 10.5038 81.1192 10.3811 80.6898 10.3811H68.4199V5.71856H82.653C83.0824 5.71856 83.4505 5.59586 83.7573 5.28912C84.064 4.98237 84.1867 4.61427 84.1867 4.18482V2.65108C84.1867 2.22163 84.064 1.85353 83.7573 1.54679C83.4505 1.24004 83.0824 1.11734 82.653 1.11734H63.7573V1.05599ZM52.0395 15.2278C52.4689 15.7186 52.7143 16.3934 52.7143 17.3137C52.7143 18.1726 52.4689 18.8474 52.0395 19.3995C51.61 19.8903 50.9352 20.1357 50.0763 20.1357H40.6898V14.4916H50.0763C50.9352 14.4916 51.5487 14.737 52.0395 15.2278ZM51.1192 6.14801C51.5487 6.57746 51.7327 7.12961 51.7327 7.8658C51.7327 8.602 51.5487 9.15415 51.1192 9.5836C50.6898 10.013 50.1377 10.1971 49.4628 10.1971H40.6898V5.53452H49.4628C50.1377 5.53452 50.6898 5.71856 51.1192 6.14801ZM34.9843 24.1235C35.291 24.4302 35.6591 24.5529 36.0886 24.5529H50.199C52.653 24.5529 54.6775 23.9394 56.3953 22.7124C58.0518 21.4854 58.9107 19.7676 58.9107 17.4977C58.9107 14.9824 57.8677 13.2032 55.7818 12.0376C57.2542 10.8106 57.9904 9.39955 57.9904 7.68176C57.9904 6.14801 57.561 4.85967 56.7021 3.81672C55.8432 2.77378 54.8002 2.03758 53.5732 1.60813C52.3462 1.17869 50.9965 0.994638 49.4628 0.994638H36.0886C35.6591 0.994638 35.291 1.11734 34.9843 1.42409C34.6775 1.85353 34.5548 2.22163 34.5548 2.65108V23.0192C34.5548 23.4486 34.6775 23.8167 34.9843 24.1235ZM31.7327 24.1235C32.0395 23.8167 32.1622 23.4486 32.1622 23.0192V21.4854C32.1622 21.056 32.0395 20.6879 31.7327 20.3811C31.426 20.0744 31.0579 19.9517 30.6284 19.9517H28.8493V2.65108C28.8493 2.22163 28.7266 1.85353 28.4199 1.54679C28.1131 1.24004 27.745 1.11734 27.3156 1.11734H24.2481C23.8186 1.11734 23.4505 1.24004 23.1438 1.54679C22.837 1.85353 22.7143 2.22163 22.7143 2.65108V20.013H11.7327V2.65108C11.7327 2.22163 11.61 1.85353 11.3033 1.54679C10.9965 1.24004 10.6285 1.11734 10.199 1.11734H7.13152C6.70207 1.11734 6.33397 1.24004 6.02722 1.54679C5.65913 1.79218 5.53643 2.16028 5.53643 2.58973V23.0192C5.53643 23.4486 5.65913 23.8167 5.96587 24.1235C6.27262 24.4302 6.64072 24.5529 7.07017 24.5529H30.6284C31.0579 24.5529 31.426 24.4302 31.7327 24.1235Z" fill="#1E1E1E"/>
<path d="M146.395 33.0192C146.089 33.2646 145.782 33.5713 145.475 33.8781C145.843 33.6327 146.089 33.3259 146.395 33.0192ZM157.99 17.6818C156.211 21.8535 152.346 25.2891 148.543 27.6818C144.616 30.1357 139.463 32.283 134.862 30.5038C133.696 30.0744 132.714 29.2768 131.917 28.2953C130.997 30.013 129.217 33.9394 125.966 37.1296C122.714 40.3811 114.432 43.7554 114.432 43.7554H114.309C114.371 43.694 120.935 39.0928 124.064 36.0867C127.07 33.1419 131.181 29.1541 131.917 28.2339C131.303 27.4977 130.874 26.6388 130.628 25.7799C129.095 20.5652 131.671 14.737 134.678 10.5652C136.518 7.92715 138.972 5.84126 141.61 4.06212C142.776 3.26458 144.432 2.83513 145.843 3.01918C146.825 3.14188 148.972 4.43022 148.236 5.77991C147.99 6.20936 147.07 6.70016 147.193 7.31366C147.377 8.54065 149.524 9.64495 150.199 10.1971C150.444 10.3811 150.628 10.6879 150.628 10.9946C150.567 12.6511 149.463 13.694 148.297 14.737C149.095 13.9394 149.831 13.2032 150.138 12.0989C150.26 11.7308 150.383 10.9946 150.076 10.6879C149.095 9.7063 146.518 9.0928 146.395 7.31366C146.334 6.39341 148.052 5.65722 147.132 4.92102C145.659 3.75537 143.757 4.24617 142.346 5.35047C137.132 9.5836 132.776 15.5959 132.224 22.467C131.978 25.8413 134.432 29.2155 137.929 29.1541C142.96 29.0928 147.377 26.3934 151.119 23.2646C153.512 21.24 155.72 18.5407 156.641 15.4118C156.825 14.8597 157.07 14.0008 156.518 13.5713C155.107 12.3443 152.408 13.8167 151.242 14.5529L145.168 19.6449C144.003 20.6879 142.53 20.7492 141.058 20.9946L136.15 21.9149L138.481 21.056L142.101 20.3198C143.021 20.0744 143.88 19.829 144.555 19.1541L150.444 13.4486C152.346 12.0376 155.414 10.5038 157.684 12.0989C159.585 13.3873 158.727 15.964 157.99 17.6818ZM154.616 11.056C153.696 10.9946 152.224 11.3014 151.794 10.1971L150.874 7.68176L148.849 5.04372L150.138 5.53452C150.874 5.90261 151.487 6.39341 151.855 7.06826L152.898 9.7063C153.144 10.3198 154.371 10.8719 154.616 11.056ZM116.886 44.4302C125.107 47.8658 130.444 45.5959 133.757 43.7554C136.763 42.0989 141.917 37.1296 145.475 33.8781C144.678 34.4916 143.389 35.1664 139.892 36.2707C134.432 37.9272 132.592 36.8842 127.99 38.4793C123.389 40.0744 121.671 41.6081 117.5 43.8781C127.806 35.9026 131.61 35.2891 136.15 35.3505C140.628 35.4118 148.665 29.4609 149.524 28.6634C150.383 27.9272 151.365 28.6634 150.812 29.7676C148.052 34.3689 139.524 43.0192 132.285 46.148C125.046 49.3382 116.886 44.4302 116.886 44.4302ZM160.812 43.694V6.14801C160.812 6.14801 160.812 0.135742 154.8 0.135742H117.254C117.254 0.135742 111.242 0.135742 111.242 6.14801V43.694C111.242 43.694 111.242 49.7063 117.254 49.7063H154.8C154.8 49.7676 160.812 49.7676 160.812 43.694Z" fill="#1E1E1E"/>
</svg>
