<svg width="19" height="11" viewBox="0 0 19 11" fill="none" xmlns="http://www.w3.org/2000/svg">
<path d="M15.8772 5.67348C15.8772 5.67348 18.2609 2.49907 18.4933 1.45767C18.5729 1.08753 18.4003 0.874228 17.9886 0.874228C17.9886 0.874228 16.6142 0.874228 15.9236 0.874228C15.4522 0.874228 15.2796 1.06871 15.1335 1.35102C15.1335 1.35102 14.018 3.59694 12.6568 5.01476C12.2186 5.47272 11.9995 5.61074 11.7604 5.61074C11.5679 5.61074 11.4749 5.46018 11.4749 5.04612V1.42002C11.4749 0.911869 11.4152 0.767578 10.9703 0.767578H7.65702C7.40471 0.767578 7.24535 0.905596 7.24535 1.0938C7.24535 1.57059 8.01557 1.67724 8.01557 2.96959V5.63583C8.01557 6.16908 7.98237 6.38238 7.71678 6.38238C7.00631 6.38238 5.31979 4.07373 4.37693 1.45139C4.19102 0.918143 3.98518 0.767578 3.44736 0.767578H1.389C1.09021 0.767578 0.871094 0.962057 0.871094 1.24437C0.871094 1.76507 1.51516 4.18038 4.05822 7.41124C5.75802 9.58816 8.00229 10.7613 10.0208 10.7613C11.2492 10.7613 11.548 10.5668 11.548 10.0775V8.40873C11.548 7.99468 11.7206 7.81275 11.9729 7.81275C12.2584 7.81275 12.7564 7.90058 13.925 8.99217C15.3128 10.2406 15.4057 10.7676 16.1627 10.7676H18.48C18.719 10.7676 18.9381 10.6609 18.9381 10.2908C18.9381 9.80146 18.2609 8.92316 17.2184 7.87548C16.7935 7.34223 16.0963 6.7588 15.8772 6.48903C15.5651 6.18163 15.658 5.99342 15.8772 5.67348Z" fill="#1E1E1E"/>
</svg>
